HIERARCHY
ROOT Hips
{
	OFFSET 0.000000 89.005402 0.000000
	CHANNELS 6 Xposition Yposition Zposition Xrotation Yrotation Zrotation
	JOINT Spine
	{
		OFFSET 0.116900 10.681000 0.373400
		CHANNELS 3 Xrotation Yrotation Zrotation
		JOINT Spine1
		{
			OFFSET 0.000000 13.840401 0.053500
			CHANNELS 3 Xrotation Yrotation Zrotation
			JOINT Spine2
			{
				OFFSET 0.000000 14.712700 -0.366200
				CHANNELS 3 Xrotation Yrotation Zrotation
				JOINT Neck
				{
					OFFSET 0.000000 35.415497 -3.314200
					CHANNELS 3 Xrotation Yrotation Zrotation
					JOINT Head
					{
						OFFSET 0.000000 16.899200 1.218300
						CHANNELS 3 Xrotation Yrotation Zrotation
						JOINT HeadTop_End
						{
							OFFSET 0.000000 22.206207 2.192500
							CHANNELS 3 Xrotation Yrotation Zrotation
							End Site
							{
								OFFSET 0.000000 22.314178 0.000000
							}
						}
					}
				}
				JOINT LeftShoulder
				{
					OFFSET 12.896400 26.716293 -4.548400
					CHANNELS 3 Xrotation Yrotation Zrotation
					JOINT LeftArm
					{
						OFFSET 19.027000 -4.857010 -1.718400
						CHANNELS 3 Xrotation Yrotation Zrotation
						JOINT LeftForeArm
						{
							OFFSET 24.179897 0.000000 0.000000
							CHANNELS 3 Xrotation Yrotation Zrotation
							JOINT LeftHand
							{
								OFFSET 27.156403 0.000000 0.000000
								CHANNELS 3 Xrotation Yrotation Zrotation
								JOINT LeftHandIndex1
								{
									OFFSET 16.441200 0.000000 0.000000
									CHANNELS 3 Xrotation Yrotation Zrotation
									JOINT LeftHandIndex2
									{
										OFFSET 4.821899 0.000000 0.000000
										CHANNELS 3 Xrotation Yrotation Zrotation
										JOINT LeftHandIndex3
										{
											OFFSET 6.386497 0.000000 0.000000
											CHANNELS 3 Xrotation Yrotation Zrotation
											JOINT LeftHandIndex4
											{
												OFFSET 5.188988 0.000000 0.000000
												CHANNELS 3 Xrotation Yrotation Zrotation
												End Site
												{
													OFFSET -0.178703 5.185913 0.000177
												}
											}
										}
									}
								}
								JOINT LeftHandThumb1
								{
									OFFSET 6.534897 -5.032593 5.900300
									CHANNELS 3 Xrotation Yrotation Zrotation
									JOINT LeftHandThumb2
									{
										OFFSET 3.818176 -2.204422 2.204423
										CHANNELS 3 Xrotation Yrotation Zrotation
										JOINT LeftHandThumb3
										{
											OFFSET 3.252098 -1.877594 1.877601
											CHANNELS 3 Xrotation Yrotation Zrotation
											JOINT LeftHandThumb4
											{
												OFFSET 5.251778 -3.032120 3.032117
												CHANNELS 3 Xrotation Yrotation Zrotation
												End Site
												{
													OFFSET 0.000023 6.780014 0.000000
												}
											}
										}
									}
								}
							}
						}
					}
				}
				JOINT RightShoulder
				{
					OFFSET -12.896300 26.716293 -4.548400
					CHANNELS 3 Xrotation Yrotation Zrotation
					JOINT RightArm
					{
						OFFSET -19.027000 -4.857010 -1.718400
						CHANNELS 3 Xrotation Yrotation Zrotation
						JOINT RightForeArm
						{
							OFFSET -24.179897 0.000000 0.000000
							CHANNELS 3 Xrotation Yrotation Zrotation
							JOINT RightHand
							{
								OFFSET -27.156403 0.000000 0.000000
								CHANNELS 3 Xrotation Yrotation Zrotation
								JOINT RightHandThumb1
								{
									OFFSET -6.591202 -4.852203 5.988100
									CHANNELS 3 Xrotation Yrotation Zrotation
									JOINT RightHandThumb2
									{
										OFFSET -3.818176 -2.204422 2.204423
										CHANNELS 3 Xrotation Yrotation Zrotation
										JOINT RightHandThumb3
										{
											OFFSET -3.252098 -1.877594 1.877601
											CHANNELS 3 Xrotation Yrotation Zrotation
											JOINT RightHandThumb4
											{
												OFFSET -5.251778 -3.032120 3.032117
												CHANNELS 3 Xrotation Yrotation Zrotation
												End Site
												{
													OFFSET -0.000023 6.780014 0.000000
												}
											}
										}
									}
								}
								JOINT RightHandIndex1
								{
									OFFSET -16.029404 0.000000 0.000000
									CHANNELS 3 Xrotation Yrotation Zrotation
									JOINT RightHandIndex2
									{
										OFFSET -5.213303 0.000000 0.000000
										CHANNELS 3 Xrotation Yrotation Zrotation
										JOINT RightHandIndex3
										{
											OFFSET -6.386528 0.000000 0.000000
											CHANNELS 3 Xrotation Yrotation Zrotation
											JOINT RightHandIndex4
											{
												OFFSET -5.189026 0.000000 0.000000
												CHANNELS 3 Xrotation Yrotation Zrotation
												End Site
												{
													OFFSET 0.236702 5.183624 0.001972
												}
											}
										}
									}
								}
							}
						}
					}
				}
			}
		}
	}
	JOINT LeftUpLeg
	{
		OFFSET 14.073000 -7.904099 -1.463000
		CHANNELS 3 Xrotation Yrotation Zrotation
		JOINT LeftLeg
		{
			OFFSET -0.109806 -34.073280 4.093200
			CHANNELS 3 Xrotation Yrotation Zrotation
			JOINT LeftFoot
			{
				OFFSET 0.109806 -29.899420 -6.319000
				CHANNELS 3 Xrotation Yrotation Zrotation
				JOINT LeftToeBase
				{
					OFFSET 1.551100 -14.988700 20.535801
					CHANNELS 3 Xrotation Yrotation Zrotation
					JOINT LeftToe_End
					{
						OFFSET 0.221200 0.570800 13.248301
						CHANNELS 3 Xrotation Yrotation Zrotation
						End Site
						{
							OFFSET 0.000000 13.262435 0.000000
						}
					}
				}
			}
		}
	}
	JOINT RightUpLeg
	{
		OFFSET -13.839300 -7.904099 -1.463000
		CHANNELS 3 Xrotation Yrotation Zrotation
		JOINT RightLeg
		{
			OFFSET 0.109694 -34.073219 4.093300
			CHANNELS 3 Xrotation Yrotation Zrotation
			JOINT RightFoot
			{
				OFFSET -0.109694 -29.899384 -6.319200
				CHANNELS 3 Xrotation Yrotation Zrotation
				JOINT RightToeBase
				{
					OFFSET -1.551100 -14.988700 20.535801
					CHANNELS 3 Xrotation Yrotation Zrotation
					JOINT RightToe_End
					{
						OFFSET -0.221200 0.570900 13.248299
						CHANNELS 3 Xrotation Yrotation Zrotation
						End Site
						{
							OFFSET 0.000000 13.262440 0.000000
						}
					}
				}
			}
		}
	}
}
MOTION
Frames: 4
Frame Time: 0.033333
8.970455 58.778763 7.028908 -17.521088 22.774909 12.697908 21.827606 0.055157 -3.460703 10.123600 0.348957 -1.155092 10.123825 0.366871 -1.148021 12.805207 -0.307181 3.235417 -21.228715 -0.097160 -0.311657 0.000000 -0.000002 0.000000 2.107003 -16.226612 3.714301 10.248617 -9.605007 -65.195324 -0.000014 -97.691233 0.000003 7.700176 9.026516 -7.730365 1.535578 4.339354 -38.960130 8.787137 6.613193 -106.116585 2.456658 5.275371 -49.916966 0.000000 -0.000001 0.000000 -11.500395 15.913917 17.303041 3.939044 7.948708 0.746812 -1.504464 -8.725034 -1.694633 -0.000000 -0.000000 0.000000 3.077164 21.857676 -5.422842 -23.609724 24.612966 64.882815 0.000032 121.632501 -0.000033 -10.035310 10.304057 -25.165398 -14.409583 -17.733946 -15.482355 -1.928155 -0.883106 -1.758204 -13.155094 -3.350083 4.254808 0.000002 0.000001 -0.000004 1.376541 -4.166775 34.443039 7.347205 -6.936817 93.299899 3.560722 -6.070066 60.761479 -0.000002 0.000000 0.000001 -51.370054 -5.211924 15.353611 87.513336 1.068059 -1.446885 -26.545337 14.698453 -12.086272 -1.052237 -0.000002 0.000005 -0.000001 0.000002 0.000000 -68.518224 14.570527 -28.753546 92.632043 2.486946 3.988719 7.795477 -0.139270 13.776921 -4.779716 0.000001 0.000007 0.000000 -0.000000 0.000000 
9.091307 58.977585 6.394232 -18.386418 22.126357 13.095920 23.308371 0.277446 -3.159659 10.710224 0.372983 -1.072625 10.710158 0.394866 -1.065906 14.992462 -0.317833 3.088855 -14.485177 -0.457040 0.337169 0.000001 -0.000002 0.000000 2.196729 -15.872794 4.903341 9.935355 -10.392854 -64.827436 0.000236 -96.277138 0.000241 5.708666 6.542709 -3.568211 1.535577 4.339354 -38.960126 8.787133 6.613192 -106.116592 2.456660 5.275372 -49.916962 0.000003 0.000002 0.000001 -11.500399 15.913909 17.303039 3.939046 7.948709 0.746810 -1.504463 -8.725033 -1.694632 0.000000 0.000000 0.000000 2.930315 23.093901 -3.629600 -21.010116 29.201842 65.112152 0.000001 118.198746 0.000000 -1.443502 13.624587 -33.219677 -14.409583 -17.733946 -15.482353 -1.928155 -0.883111 -1.758206 -13.155095 -3.350082 4.254802 -0.000003 -0.000002 -0.000000 1.376543 -4.166779 34.443035 7.347205 -6.936820 93.299899 3.560720 -6.070061 60.761472 0.000000 0.000001 -0.000000 -50.403880 -4.879709 14.504882 87.007574 1.561341 -1.141301 -26.202201 15.138981 -12.045293 -0.936056 0.000017 0.000001 0.000001 -0.000001 -0.000000 -68.549500 13.142295 -28.172124 94.230321 2.309453 3.297561 1.060944 -0.814647 11.874011 -5.116268 0.000002 0.000003 -0.000000 0.000000 -0.000000 
9.220922 58.949532 5.926409 -19.655913 21.528365 13.913749 24.911455 0.245292 -2.979222 11.312467 0.297354 -1.094514 11.312548 0.315360 -1.089309 16.212817 -0.625503 3.289358 -5.420302 -1.202928 0.201992 -0.000003 0.000003 -0.000000 2.295295 -15.284731 6.555885 9.995589 -13.031237 -63.050576 0.000322 -94.228176 0.000290 1.762026 4.616472 -1.538142 1.535580 4.339353 -38.960126 8.787138 6.613190 -106.116592 2.456662 5.275370 -49.916969 -0.000000 0.000006 -0.000001 -11.500395 15.913905 17.303041 3.939045 7.948706 0.746809 -1.504463 -8.725036 -1.694633 0.000000 -0.000003 0.000001 2.855626 23.927555 -2.672084 -18.487107 33.493544 64.717251 0.000006 111.088983 -0.000010 2.454327 13.934799 -32.904658 -14.409580 -17.733946 -15.482359 -1.928152 -0.883110 -1.758201 -13.155095 -3.350086 4.254809 -0.000002 -0.000001 -0.000001 1.376545 -4.166780 34.443035 7.347207 -6.936817 93.299899 3.560723 -6.070063 60.761479 -0.000001 -0.000002 0.000002 -49.044525 -5.045127 13.507450 86.849236 1.877574 -1.297569 -25.943857 15.639578 -12.168489 -0.754884 0.000002 -0.000004 -0.000000 -0.000001 -0.000001 -65.669407 12.318068 -28.559589 94.660323 0.952710 3.158867 -4.357411 -1.390018 12.329811 -8.033436 -0.000004 -0.000004 0.000001 0.000000 -0.000000 
9.255793 58.656906 5.980379 -20.576027 21.207235 14.381158 26.328166 0.109750 -3.079404 11.773765 0.243660 -1.165286 11.773902 0.257793 -1.161445 16.664304 -1.085743 3.987163 7.139008 -0.554759 -1.329904 -0.000002 0.000000 0.000001 2.498043 -14.715550 9.366051 10.375915 -16.588457 -61.221786 -0.001363 -92.342552 -0.001381 -0.817152 3.458485 -0.318172 1.535581 4.339349 -38.960130 8.787137 6.613192 -106.116592 2.456663 5.275375 -49.916962 -0.000000 -0.000004 -0.000001 -11.500396 15.913910 17.303045 3.939045 7.948707 0.746810 -1.504463 -8.725034 -1.694633 0.000001 0.000003 -0.000001 2.718026 23.619653 -2.109403 -17.184623 37.626525 64.306402 -0.000237 103.964966 0.000241 3.776352 1.250270 -22.072625 -14.409582 -17.733944 -15.482353 -1.928154 -0.883110 -1.758204 -13.155095 -3.350082 4.254805 0.000000 0.000001 -0.000004 1.376542 -4.166779 34.443035 7.347205 -6.936817 93.299899 3.560724 -6.070063 60.761479 0.000002 0.000001 -0.000000 -48.174130 -5.442000 13.328510 87.394272 1.741583 -1.383739 -26.135784 15.880533 -12.526834 -0.597682 -0.000001 -0.000006 -0.000001 -0.000001 -0.000001 -62.771617 10.013411 -28.085777 91.531802 0.893191 1.567705 -5.064076 -1.407498 11.723695 -8.159469 0.000002 -0.000001 0.000000 0.000000 -0.000000 
